# xmcd
# Copyright (c) 1998 CDDB Inc.
#
# Track frame offsets:
#	150
#	17646
#	32524
#	49520
#	68155
#	85361
#	104823
#	122434
#	141227
#	156237
#
# Disc length: 2322 seconds
#
# Revision: 1
# Processed by: cddbd v1.4PL0 Copyright (c) Steve Scherf et al.
# Submitted via: audiograbber 1.70
#
DISCID=8109100a
DTITLE=Johnny Allen - Route 50
DYEAR=1900
DGENRE=
TTITLE0=Here Are My Hands
TTITLE1=White Light
TTITLE2=Now The Night
TTITLE3=Mother This Song's Yours
TTITLE4=Route 50
TTITLE5=Your Dreams Always Come Back
TTITLE6=So Good You're Here
TTITLE7=Take This Song
TTITLE8=Back Home
TTITLE9=Get a Life
EXTD=Laszlo Posztubanyi
EXTT0=
EXTT1=
EXTT2=
EXTT3=
EXTT4=
EXTT5=
EXTT6=
EXTT7=
EXTT8=
EXTT9=
PLAYORDER=
